 <svg version="1.0" xmlns="http://www.w3.org/2000/svg" width="700.000000pt" height="418.000000pt" viewBox="0 0 700.000000 418.000000" preserveAspectRatio="xMidYMid meet">
<metadata>
Created by potrace 1.12, written by Peter Selinger 2001-2015
</metadata>
<g transform="translate(0.000000,418.000000) scale(0.100000,-0.100000)" fill="#000000" stroke="none">
<path d="M2244 3936 c-28 -13 -63 -39 -77 -58 -58 -75 -57 -67 -57 -576 0
-442 1 -470 18 -485 17 -15 57 -17 365 -17 301 0 348 2 361 16 14 14 16 71 16
485 0 510 1 502 -57 577 -14 19 -49 45 -77 58 -48 23 -62 24 -246 24 -184 0
-198 -1 -246 -24z m473 -92 c64 -47 63 -44 61 -519 l-3 -430 -285 0 -285 0 0
442 c0 431 1 442 21 470 42 58 70 64 276 61 170 -3 189 -5 215 -24z"></path>
<path d="M2300 3675 c-17 -21 -4 -61 22 -69 30 -8 306 -8 336 0 26 8 39 48 22
69 -18 22 -362 22 -380 0z"></path>
<path d="M2313 3510 c-30 -12 -32 -64 -4 -80 11 -6 89 -10 181 -10 92 0 170 4
181 10 12 7 19 21 19 40 0 19 -7 33 -19 40 -24 12 -327 12 -358 0z"></path>
<path d="M2306 3324 c-9 -8 -16 -23 -16 -33 0 -37 19 -41 200 -41 124 0 180 4
188 12 18 18 14 56 -7 68 -11 6 -90 10 -185 10 -136 0 -167 -3 -180 -16z"></path>
<path d="M2308 3149 c-21 -12 -24 -49 -6 -67 8 -8 64 -12 188 -12 124 0 180 4
188 12 18 18 14 56 -7 68 -26 13 -340 13 -363 -1z"></path>
<path d="M4335 3936 c-28 -12 -63 -39 -78 -59 -56 -74 -57 -79 -57 -578 0
-446 1 -460 20 -479 19 -19 33 -20 361 -20 215 0 347 4 360 10 18 10 19 26 19
491 0 526 1 513 -61 584 -60 68 -87 75 -314 75 -189 0 -203 -2 -250 -24z m455
-84 c19 -9 45 -32 57 -51 l23 -34 0 -438 0 -439 -285 0 -285 0 0 440 c0 475 0
478 52 512 36 24 51 26 233 27 143 1 175 -2 205 -17z"></path>
<path d="M4392 3678 c-19 -19 -14 -45 10 -62 18 -13 54 -16 181 -16 90 0 167
4 178 10 21 12 25 50 7 68 -17 17 -359 17 -376 0z"></path>
<path d="M4402 3504 c-12 -8 -22 -24 -22 -34 0 -42 34 -50 207 -50 150 0 165
2 183 20 11 11 20 25 20 30 0 6 -9 19 -20 30 -18 18 -33 20 -183 20 -131 0
-167 -3 -185 -16z"></path>
<path d="M4399 3321 c-21 -16 -22 -22 -11 -45 l12 -26 178 0 c125 0 182 4 190
12 18 18 14 56 -7 68 -11 6 -88 10 -179 10 -142 0 -162 -2 -183 -19z"></path>
<path d="M4396 3144 c-9 -8 -16 -22 -16 -29 0 -7 7 -21 16 -29 13 -13 44 -16
188 -16 180 0 196 4 196 45 0 41 -16 45 -196 45 -144 0 -175 -3 -188 -16z"></path>
<path d="M3332 3131 c-49 -13 -109 -56 -139 -103 l-28 -42 -3 -489 c-2 -352 1
-493 9 -503 8 -10 50 -14 163 -16 l151 -3 3 -78 c3 -76 3 -77 -25 -88 -37 -14
-79 -54 -93 -90 l-12 -29 -608 0 c-540 0 -610 -2 -624 -16 -20 -19 -21 -48 -3
-63 10 -8 193 -12 622 -13 l608 -3 22 -39 c39 -70 108 -102 193 -90 56 8 102
40 130 92 l23 42 608 0 c459 0 610 3 619 12 18 18 14 56 -7 68 -13 6 -225 10
-619 10 l-600 0 -27 45 c-18 32 -40 52 -71 68 l-45 21 3 76 3 75 157 3 c145 2
158 4 168 22 7 14 10 174 8 493 -3 462 -3 473 -25 512 -25 47 -64 85 -113 111
-30 16 -61 19 -225 21 -104 1 -205 -2 -223 -6z m390 -91 c20 -6 50 -26 67 -46
l31 -35 0 -444 0 -445 -285 0 -285 0 0 435 c0 462 0 465 48 508 11 10 33 22
48 27 41 12 332 12 376 0z m-122 -1330 c27 -27 28 -110 3 -132 -26 -23 -67
-29 -102 -17 -38 14 -51 35 -51 88 0 31 6 44 26 60 35 28 97 28 124 1z"></path>
<path d="M3352 2858 c-7 -7 -12 -21 -12 -33 0 -41 16 -45 196 -45 144 0 175 3
188 16 9 8 16 22 16 29 0 7 -7 21 -16 29 -13 13 -44 16 -188 16 -120 0 -176
-4 -184 -12z"></path>
<path d="M3338 2665 c-9 -21 -8 -28 7 -45 17 -19 31 -20 191 -20 182 0 204 5
204 49 0 37 -18 41 -207 41 l-183 0 -12 -25z"></path>
<path d="M3353 2503 c-21 -8 -16 -61 6 -73 11 -6 88 -10 179 -10 142 0 162 2
183 19 21 16 22 22 11 45 l-12 26 -177 -1 c-98 0 -184 -3 -190 -6z"></path>
<path d="M3364 2330 c-42 -17 -40 -64 3 -81 13 -5 93 -9 176 -9 162 0 197 9
197 50 0 42 -34 50 -200 49 -85 0 -164 -4 -176 -9z"></path>
<path d="M2482 2698 c-20 -20 -14 -58 11 -67 42 -17 84 31 57 64 -15 18 -52
19 -68 3z"></path>
<path d="M4572 2698 c-28 -28 -3 -72 39 -66 30 4 47 33 33 56 -14 21 -55 27
-72 10z"></path>
<path d="M2486 2527 c-12 -9 -17 -23 -14 -42 2 -24 8 -31 31 -33 54 -6 77 43
35 72 -27 19 -30 19 -52 3z"></path>
<path d="M4576 2524 c-30 -30 -13 -74 29 -74 44 0 63 60 26 80 -27 14 -37 13
-55 -6z"></path>
<path d="M2488 2349 c-21 -12 -24 -49 -6 -67 21 -21 57 -14 70 14 11 23 10 29
-11 45 -27 22 -30 22 -53 8z"></path>
<path d="M4576 2344 c-30 -30 -13 -74 29 -74 48 0 64 63 19 80 -32 13 -30 13
-48 -6z"></path>
<path d="M2488 2169 c-34 -19 -16 -79 23 -79 21 0 49 26 49 45 0 17 -27 45
-43 45 -7 0 -20 -5 -29 -11z"></path>
<path d="M4578 2169 c-36 -21 -16 -79 27 -79 44 0 63 60 26 80 -24 12 -31 12
-53 -1z"></path>
<path d="M2482 1988 c-27 -27 -7 -78 29 -78 21 0 49 26 49 45 0 35 -53 58 -78
33z"></path>
<path d="M4572 1988 c-28 -28 -7 -78 33 -78 27 0 45 18 45 45 0 27 -18 45 -45
45 -12 0 -26 -5 -33 -12z"></path>
<path d="M954 1446 c-3 -8 -4 -27 -2 -43 l3 -28 1053 -3 1053 -2 -3 42 -3 43
-1048 3 c-897 2 -1048 0 -1053 -12z"></path>
<path d="M4600 1415 l0 -45 763 2 762 3 0 40 0 40 -762 3 -763 2 0 -45z"></path>
<path d="M3769 1365 c-27 -14 -59 -69 -59 -100 0 -25 27 -72 52 -89 12 -9 42
-16 66 -16 37 0 50 6 78 34 24 24 34 43 34 65 0 91 -93 148 -171 106z m81 -94
c0 -24 -25 -34 -40 -16 -15 18 -5 35 21 35 12 0 19 -7 19 -19z"></path>
<path d="M1647 1113 c-4 -3 -7 -24 -7 -45 l0 -38 711 0 710 0 -3 43 -3 42
-701 3 c-385 1 -704 -1 -707 -5z"></path>
<path d="M5346 1089 c-66 -19 -98 -85 -70 -144 20 -42 58 -65 110 -65 48 0
104 53 104 99 0 81 -68 133 -144 110z m57 -93 c3 -8 -1 -20 -9 -27 -12 -10
-18 -9 -31 3 -8 9 -12 21 -9 27 10 16 43 14 49 -3z"></path>
<path d="M3414 1016 c-3 -8 -4 -27 -2 -43 l3 -28 743 -3 742 -2 0 45 0 45
-740 0 c-630 0 -741 -2 -746 -14z"></path>
<path d="M2130 776 c-39 -12 -80 -66 -80 -103 0 -32 25 -78 52 -97 12 -9 42
-16 66 -16 37 0 50 6 78 34 28 28 34 42 34 75 0 76 -77 131 -150 107z m60
-105 c0 -24 -25 -34 -40 -16 -15 18 -5 35 21 35 12 0 19 -7 19 -19z"></path>
<path d="M2778 709 c-5 -3 -8 -21 -6 -40 l3 -34 528 -3 527 -2 0 40 c0 25 -5
40 -12 40 -7 0 -242 1 -521 2 -280 2 -513 0 -519 -3z"></path>
<path d="M4604 711 c-2 -2 -4 -22 -4 -43 l0 -38 630 0 630 0 0 40 c0 25 -5 40
-12 41 -58 3 -1241 3 -1244 0z"></path>
<path d="M1322 358 l3 -43 560 0 560 0 3 43 3 42 -566 0 -566 0 3 -42z"></path>
<path d="M2783 380 c-22 -13 -36 -32 -44 -61 -11 -37 -11 -46 7 -78 59 -111
214 -73 214 53 0 30 -7 45 -34 72 -40 40 -92 46 -143 14z m87 -90 c0 -24 -26
-38 -42 -22 -16 16 -2 42 22 42 13 0 20 -7 20 -20z"></path>
<path d="M3755 320 c-3 -5 -3 -25 1 -45 l6 -35 639 0 639 0 0 45 0 45 -639 0
c-409 0 -642 -4 -646 -10z"></path>
</g>
</svg>